<?xml version="1.0" standalone="no"?>
<!DOCTYPE svg PUBLIC "-//W3C//DTD SVG 20010904//EN"
 "http://www.w3.org/TR/2001/REC-SVG-20010904/DTD/svg10.dtd">
<svg version="1.0" xmlns="http://www.w3.org/2000/svg"
 width="345.000000pt" height="345.000000pt" viewBox="0 0 345.000000 345.000000"
 preserveAspectRatio="xMidYMid meet">
<metadata>
Created by potrace 1.14, written by Peter Selinger 2001-2017
</metadata>
<g transform="translate(0.000000,345.000000) scale(0.100000,-0.100000)"
fill="#000000" stroke="none">
<path d="M1700 3025 l0 -275 275 0 275 0 0 275 0 275 -275 0 -275 0 0 -275z"/>
<path d="M1090 2105 l0 -155 40 0 40 0 0 -45 0 -45 40 0 40 0 0 -40 0 -40 40
0 40 0 0 -85 0 -85 -40 0 -40 0 0 -40 0 -40 -40 0 -40 0 0 -40 0 -40 -40 0
-40 0 0 -205 0 -205 80 0 80 0 0 165 0 165 40 0 40 0 0 40 0 40 85 0 85 0 0
-40 0 -40 40 0 40 0 0 -165 0 -165 75 0 75 0 0 205 0 205 -35 0 c-34 0 -35 1
-35 40 l0 40 -45 0 -45 0 0 40 0 40 -40 0 -40 0 0 85 0 85 40 0 40 0 0 40 0
40 45 0 45 0 0 40 c0 39 1 40 35 40 l35 0 0 160 0 160 -75 0 -75 0 0 -125 0
-125 -40 0 c-39 0 -40 -1 -40 -35 l0 -35 -90 0 -90 0 0 35 c0 33 -2 35 -35 35
l-35 0 0 125 0 125 -80 0 -80 0 0 -155z"/>
<path d="M1910 1650 l0 -610 75 0 75 0 0 205 0 205 170 0 170 0 0 45 0 45 40
0 c39 0 40 1 40 35 0 28 4 35 20 35 19 0 20 7 20 250 0 243 -1 250 -20 250
-17 0 -20 7 -20 40 l0 40 -40 0 c-39 0 -40 1 -40 35 l0 35 -245 0 -245 0 0
-610z m410 415 c0 -34 1 -35 40 -35 l40 0 0 -170 0 -170 -40 0 -40 0 0 -40 0
-40 -130 0 -130 0 0 245 0 245 130 0 130 0 0 -35z"/>
<path d="M1280 550 l0 -210 215 0 215 0 0 210 0 210 -215 0 -215 0 0 -210z"/>
<path d="M2470 335 l0 -215 215 0 215 0 0 215 0 215 -215 0 -215 0 0 -215z"/>
</g>
</svg>
